<svg xmlns="http://www.w3.org/2000/svg" xmlns:xlink="http://www.w3.org/1999/xlink" width="500" zoomAndPan="magnify" viewBox="0 0 375 374.999991" height="500" preserveAspectRatio="xMidYMid meet" version="1.0"><defs><clipPath id="id1"><path d="M 65.597656 65.597656 L 309.402344 65.597656 L 309.402344 309.402344 L 65.597656 309.402344 Z M 65.597656 65.597656 " clip-rule="nonzero"/></clipPath></defs><g clip-path="url(#id1)"><path fill="#ffffff" d="M 305.550781 187.839844 C 305.550781 175.113281 311.890625 161.609375 307.988281 150.148438 C 303.988281 138.25 290.433594 130.9375 282.972656 121.039062 C 275.414062 111.042969 272.296875 96.464844 261.910156 89.199219 C 251.621094 82.03125 236.261719 83.640625 223.925781 79.738281 C 211.976562 76.03125 200.617188 65.890625 187.402344 65.890625 C 174.1875 65.890625 162.777344 75.984375 150.878906 79.738281 C 138.542969 83.589844 123.136719 81.980469 112.847656 89.199219 C 102.460938 96.464844 99.339844 111.042969 91.78125 121.039062 C 84.273438 130.9375 70.765625 138.25 66.71875 150.148438 C 62.867188 161.609375 69.15625 175.113281 69.15625 187.839844 C 69.15625 200.566406 62.816406 214.074219 66.71875 225.535156 C 70.71875 237.429688 84.273438 244.746094 91.734375 254.644531 C 99.292969 264.640625 102.414062 279.21875 112.796875 286.484375 C 123.085938 293.703125 138.445312 292.09375 150.832031 295.945312 C 162.777344 299.648438 174.140625 309.792969 187.355469 309.792969 C 200.566406 309.792969 211.976562 299.699219 223.875 295.945312 C 236.210938 292.09375 251.621094 293.703125 261.910156 286.484375 C 272.296875 279.21875 275.414062 264.640625 282.972656 254.644531 C 290.484375 244.746094 303.988281 237.429688 307.988281 225.535156 C 311.890625 214.027344 305.550781 200.519531 305.550781 187.839844 Z M 305.550781 187.839844 " fill-opacity="1" fill-rule="nonzero"/></g><path fill="#9c2e38" d="M 248.0625 174.789062 L 128.832031 174.789062 L 128.832031 166.8125 L 188.441406 123.347656 L 248.058594 166.8125 L 248.058594 174.789062 " fill-opacity="1" fill-rule="nonzero"/><path fill="#9c2e38" d="M 134.21875 179.171875 L 242.675781 179.171875 L 242.675781 170.003906 L 134.21875 170.003906 Z M 134.21875 179.171875 " fill-opacity="1" fill-rule="nonzero"/><path fill="#9c2e38" d="M 132.121094 244.566406 L 242.675781 244.566406 L 242.675781 237.792969 L 132.121094 237.792969 Z M 132.121094 244.566406 " fill-opacity="1" fill-rule="nonzero"/><path fill="#9c2e38" d="M 126.738281 250.945312 L 248.0625 250.945312 L 248.0625 244.566406 L 126.738281 244.566406 Z M 126.738281 250.945312 " fill-opacity="1" fill-rule="nonzero"/><path fill="#9c2e38" d="M 139.214844 184.75 L 156.785156 184.75 L 156.785156 180.769531 L 139.214844 180.769531 Z M 139.214844 184.75 " fill-opacity="1" fill-rule="nonzero"/><path fill="#9c2e38" d="M 139.214844 236.195312 L 156.785156 236.195312 L 156.785156 232.214844 L 139.214844 232.214844 Z M 139.214844 236.195312 " fill-opacity="1" fill-rule="nonzero"/><path fill="#9c2e38" d="M 141.085938 232.5 L 154.910156 232.5 L 154.910156 182.757812 L 141.085938 182.757812 Z M 141.085938 232.5 " fill-opacity="1" fill-rule="nonzero"/><path fill="#9c2e38" d="M 179.808594 184.75 L 197.371094 184.75 L 197.371094 180.769531 L 179.808594 180.769531 Z M 179.808594 184.75 " fill-opacity="1" fill-rule="nonzero"/><path fill="#9c2e38" d="M 179.808594 236.195312 L 197.371094 236.195312 L 197.371094 232.214844 L 179.808594 232.214844 Z M 179.808594 236.195312 " fill-opacity="1" fill-rule="nonzero"/><path fill="#9c2e38" d="M 181.671875 232.5 L 195.5 232.5 L 195.5 182.757812 L 181.671875 182.757812 Z M 181.671875 232.5 " fill-opacity="1" fill-rule="nonzero"/><path fill="#9c2e38" d="M 220.394531 184.75 L 237.957031 184.75 L 237.957031 180.769531 L 220.394531 180.769531 Z M 220.394531 184.75 " fill-opacity="1" fill-rule="nonzero"/><path fill="#9c2e38" d="M 220.394531 236.195312 L 237.957031 236.195312 L 237.957031 232.214844 L 220.394531 232.214844 Z M 220.394531 236.195312 " fill-opacity="1" fill-rule="nonzero"/><path fill="#9c2e38" d="M 222.265625 232.5 L 236.085938 232.5 L 236.085938 182.757812 L 222.265625 182.757812 Z M 222.265625 232.5 " fill-opacity="1" fill-rule="nonzero"/><path fill="#9c2e38" d="M 119.050781 161.296875 C 117.226562 167.140625 111.214844 170.457031 111.214844 170.457031 C 111.214844 170.457031 108.164062 164.304688 109.988281 158.464844 C 111.808594 152.625 117.824219 149.304688 117.824219 149.304688 C 117.824219 149.304688 120.878906 155.457031 119.050781 161.296875 " fill-opacity="1" fill-rule="nonzero"/><path fill="#9c2e38" d="M 119.945312 180.121094 C 115.113281 183.875 108.28125 183.167969 108.28125 183.167969 C 108.28125 183.167969 109.289062 176.375 114.121094 172.621094 C 118.953125 168.871094 125.785156 169.578125 125.785156 169.578125 C 125.785156 169.578125 124.78125 176.371094 119.945312 180.121094 " fill-opacity="1" fill-rule="nonzero"/><path fill="#9c2e38" d="M 98.703125 175.714844 C 101.570312 181.121094 108.089844 183.28125 108.089844 183.28125 C 108.089844 183.28125 109.960938 176.675781 107.09375 171.269531 C 104.226562 165.863281 97.707031 163.703125 97.707031 163.703125 C 97.707031 163.703125 95.835938 170.308594 98.703125 175.714844 " fill-opacity="1" fill-rule="nonzero"/><path fill="#9c2e38" d="M 119.335938 192.496094 C 114.792969 196.601562 107.933594 196.398438 107.933594 196.398438 C 107.933594 196.398438 108.429688 189.550781 112.972656 185.453125 C 117.515625 181.347656 124.378906 181.550781 124.378906 181.550781 C 124.378906 181.550781 123.878906 188.398438 119.335938 192.496094 " fill-opacity="1" fill-rule="nonzero"/><path fill="#9c2e38" d="M 97.824219 189.675781 C 101.082031 194.859375 107.746094 196.523438 107.746094 196.523438 C 107.746094 196.523438 109.121094 189.800781 105.863281 184.621094 C 102.605469 179.441406 95.945312 177.769531 95.945312 177.769531 C 95.945312 177.769531 94.566406 184.496094 97.824219 189.675781 " fill-opacity="1" fill-rule="nonzero"/><path fill="#9c2e38" d="M 120.222656 204.644531 C 116.183594 209.238281 109.34375 209.828125 109.34375 209.828125 C 109.34375 209.828125 109.054688 202.964844 113.09375 198.375 C 117.132812 193.773438 123.976562 193.191406 123.976562 193.191406 C 123.976562 193.191406 124.265625 200.046875 120.222656 204.644531 " fill-opacity="1" fill-rule="nonzero"/><path fill="#9c2e38" d="M 98.53125 204.308594 C 102.363281 209.078125 109.171875 209.972656 109.171875 209.972656 C 109.171875 209.972656 109.765625 203.132812 105.933594 198.363281 C 102.101562 193.585938 95.292969 192.699219 95.292969 192.699219 C 95.292969 192.699219 94.699219 199.535156 98.53125 204.308594 " fill-opacity="1" fill-rule="nonzero"/><path fill="#9c2e38" d="M 124.421875 217.390625 C 121.539062 222.785156 115.015625 224.925781 115.015625 224.925781 C 115.015625 224.925781 113.164062 218.308594 116.046875 212.914062 C 118.929688 207.519531 125.457031 205.378906 125.457031 205.378906 C 125.457031 205.378906 127.308594 211.992188 124.421875 217.390625 " fill-opacity="1" fill-rule="nonzero"/><path fill="#9c2e38" d="M 103.226562 222.027344 C 108.050781 225.792969 114.882812 225.105469 114.882812 225.105469 C 114.882812 225.105469 113.894531 218.308594 109.074219 214.542969 C 104.253906 210.773438 97.421875 211.460938 97.421875 211.460938 C 97.421875 211.460938 98.40625 218.257812 103.226562 222.027344 " fill-opacity="1" fill-rule="nonzero"/><path fill="#9c2e38" d="M 131.261719 228.296875 C 129.40625 234.132812 123.375 237.414062 123.375 237.414062 C 123.375 237.414062 120.355469 231.242188 122.214844 225.417969 C 124.074219 219.585938 130.105469 216.300781 130.105469 216.300781 C 130.105469 216.300781 133.121094 222.472656 131.261719 228.296875 " fill-opacity="1" fill-rule="nonzero"/><path fill="#9c2e38" d="M 111.257812 236.695312 C 116.683594 239.527344 123.277344 237.617188 123.277344 237.617188 C 123.277344 237.617188 121.078125 231.113281 115.65625 228.28125 C 110.230469 225.441406 103.636719 227.355469 103.636719 227.355469 C 103.636719 227.355469 105.832031 233.863281 111.257812 236.695312 " fill-opacity="1" fill-rule="nonzero"/><path fill="#9c2e38" d="M 128.8125 243.457031 C 128.742188 243.4375 128.683594 243.40625 128.625 243.363281 C 123.472656 239.972656 115.765625 231.160156 110.980469 217.5 C 107.183594 206.660156 104.144531 189.261719 111.246094 167.914062 C 111.375 167.527344 111.773438 167.320312 112.1875 167.445312 C 112.578125 167.574219 112.789062 167.996094 112.660156 168.390625 C 100.578125 204.707031 117.628906 234.328125 129.441406 242.121094 C 129.785156 242.351562 129.882812 242.808594 129.65625 243.15625 C 129.46875 243.4375 129.121094 243.550781 128.8125 243.457031 " fill-opacity="1" fill-rule="nonzero"/><path fill="#9c2e38" d="M 255.242188 161.296875 C 257.066406 167.140625 263.078125 170.457031 263.078125 170.457031 C 263.078125 170.457031 266.132812 164.304688 264.308594 158.464844 C 262.484375 152.625 256.472656 149.304688 256.472656 149.304688 C 256.472656 149.304688 253.417969 155.457031 255.242188 161.296875 " fill-opacity="1" fill-rule="nonzero"/><path fill="#9c2e38" d="M 254.347656 180.121094 C 259.179688 183.875 266.011719 183.167969 266.011719 183.167969 C 266.011719 183.167969 265.003906 176.375 260.171875 172.621094 C 255.339844 168.871094 248.511719 169.578125 248.511719 169.578125 C 248.511719 169.578125 249.515625 176.371094 254.347656 180.121094 " fill-opacity="1" fill-rule="nonzero"/><path fill="#9c2e38" d="M 275.589844 175.714844 C 272.722656 181.121094 266.203125 183.28125 266.203125 183.28125 C 266.203125 183.28125 264.332031 176.675781 267.203125 171.269531 C 270.066406 165.863281 276.589844 163.703125 276.589844 163.703125 C 276.589844 163.703125 278.460938 170.308594 275.589844 175.714844 " fill-opacity="1" fill-rule="nonzero"/><path fill="#9c2e38" d="M 254.957031 192.496094 C 259.5 196.601562 266.363281 196.398438 266.363281 196.398438 C 266.363281 196.398438 265.863281 189.550781 261.320312 185.453125 C 256.777344 181.347656 249.914062 181.550781 249.914062 181.550781 C 249.914062 181.550781 250.414062 188.398438 254.957031 192.496094 " fill-opacity="1" fill-rule="nonzero"/><path fill="#9c2e38" d="M 276.46875 189.675781 C 273.214844 194.859375 266.550781 196.523438 266.550781 196.523438 C 266.550781 196.523438 265.171875 189.800781 268.433594 184.621094 C 271.6875 179.441406 278.351562 177.769531 278.351562 177.769531 C 278.351562 177.769531 279.726562 184.496094 276.46875 189.675781 " fill-opacity="1" fill-rule="nonzero"/><path fill="#9c2e38" d="M 254.066406 204.644531 C 258.109375 209.238281 264.953125 209.828125 264.953125 209.828125 C 264.953125 209.828125 265.242188 202.964844 261.199219 198.375 C 257.160156 193.773438 250.320312 193.191406 250.320312 193.191406 C 250.320312 193.191406 250.027344 200.046875 254.066406 204.644531 " fill-opacity="1" fill-rule="nonzero"/><path fill="#9c2e38" d="M 275.761719 204.308594 C 271.933594 209.078125 265.125 209.972656 265.125 209.972656 C 265.125 209.972656 264.523438 203.132812 268.359375 198.363281 C 272.191406 193.585938 278.996094 192.699219 278.996094 192.699219 C 278.996094 192.699219 279.597656 199.535156 275.761719 204.308594 " fill-opacity="1" fill-rule="nonzero"/><path fill="#9c2e38" d="M 249.871094 217.390625 C 252.753906 222.785156 259.285156 224.925781 259.285156 224.925781 C 259.285156 224.925781 261.128906 218.308594 258.25 212.914062 C 255.367188 207.519531 248.835938 205.378906 248.835938 205.378906 C 248.835938 205.378906 246.988281 211.992188 249.871094 217.390625 " fill-opacity="1" fill-rule="nonzero"/><path fill="#9c2e38" d="M 271.0625 222.027344 C 266.246094 225.792969 259.414062 225.105469 259.414062 225.105469 C 259.414062 225.105469 260.398438 218.308594 265.21875 214.542969 C 270.039062 210.773438 276.875 211.460938 276.875 211.460938 C 276.875 211.460938 275.890625 218.257812 271.0625 222.027344 " fill-opacity="1" fill-rule="nonzero"/><path fill="#9c2e38" d="M 243.027344 228.296875 C 244.886719 234.132812 250.921875 237.414062 250.921875 237.414062 C 250.921875 237.414062 253.9375 231.242188 252.078125 225.417969 C 250.222656 219.585938 244.191406 216.300781 244.191406 216.300781 C 244.191406 216.300781 241.171875 222.472656 243.027344 228.296875 " fill-opacity="1" fill-rule="nonzero"/><path fill="#9c2e38" d="M 263.035156 236.695312 C 257.613281 239.527344 251.019531 237.617188 251.019531 237.617188 C 251.019531 237.617188 253.214844 231.113281 258.636719 228.28125 C 264.066406 225.441406 270.660156 227.355469 270.660156 227.355469 C 270.660156 227.355469 268.457031 233.863281 263.035156 236.695312 " fill-opacity="1" fill-rule="nonzero"/><path fill="#9c2e38" d="M 245.484375 243.457031 C 245.550781 243.4375 245.613281 243.40625 245.667969 243.363281 C 250.820312 239.972656 258.527344 231.160156 263.316406 217.5 C 267.109375 206.660156 270.148438 189.261719 263.050781 167.914062 C 262.921875 167.527344 262.523438 167.320312 262.105469 167.445312 C 261.71875 167.574219 261.507812 167.996094 261.636719 168.390625 C 273.71875 204.707031 256.667969 234.328125 244.851562 242.121094 C 244.511719 242.351562 244.414062 242.808594 244.640625 243.15625 C 244.828125 243.4375 245.171875 243.550781 245.484375 243.457031 " fill-opacity="1" fill-rule="nonzero"/></svg>